<svg
        fill="none"
        height="16"
        viewBox="0 0 24 24"
        width="16"
        xmlns="http://www.w3.org/2000/svg"
>
    <g id="buttonIcon">
        <g id="url(#clip0_5661_1705)">
            <path
                    d="M7 6C7.26522 6 7.51957 5.89464 7.70711 5.70711C7.89464 5.51957 8 5.26522 8 5C8 4.73478 7.89464 4.48043 7.70711 4.29289C7.51957 4.10536 7.26522 4 7 4H5C4.73478 4 4.48043 4.10536 4.29289 4.29289C4.10536 4.48043 4 4.73478 4 5V19C4 19.2652 4.10536 19.5196 4.29289 19.7071C4.48043 19.8946 4.73478 20 5 20H7C7.26522 20 7.51957 19.8946 7.70711 19.7071C7.89464 19.5196 8 19.2652 8 19C8 18.7348 7.89464 18.4804 7.70711 18.2929C7.51957 18.1054 7.26522 18 7 18H6V6H7Z"
                    fill="white"
            />
            <path
                    d="M20.82 11.42L18 7.42C17.8471 7.20441 17.615 7.05814 17.3545 7.01317C17.0941 6.9682 16.8264 7.02818 16.61 7.18C16.5018 7.25579 16.4098 7.35224 16.3391 7.46381C16.2684 7.57537 16.2206 7.69982 16.1982 7.82999C16.1759 7.96015 16.1796 8.09344 16.2091 8.22217C16.2386 8.3509 16.2933 8.47252 16.37 8.58L18.09 11H10C9.73478 11 9.48043 11.1054 9.29289 11.2929C9.10536 11.4804 9 11.7348 9 12C9 12.2652 9.10536 12.5196 9.29289 12.7071C9.48043 12.8946 9.73478 13 10 13H18L16.2 15.4C16.1212 15.5051 16.0639 15.6246 16.0313 15.7518C15.9987 15.879 15.9915 16.0114 16.01 16.1414C16.0286 16.2714 16.0726 16.3965 16.1395 16.5095C16.2064 16.6225 16.2949 16.7212 16.4 16.8C16.5731 16.9298 16.7836 17 17 17C17.1552 17 17.3084 16.9639 17.4472 16.8944C17.5861 16.825 17.7069 16.7242 17.8 16.6L20.8 12.6C20.9281 12.4309 20.999 12.2254 21.0026 12.0133C21.0062 11.8011 20.9423 11.5934 20.82 11.42Z"
                    fill="white"
            />
        </g>
        <defs>
            <clipPath id="clip0_5661_1705">
                <rect fill="white" height="24" width="24"/>
            </clipPath>
        </defs>
    </g>
    <g id="eyeOutline">
        <g clip-path="url(#clip0_5661_2350)">
            <path d="M18.225 9.58334C17.6917 8.65834 14.7583 4.01667 9.77501 4.16667C5.16667 4.28334 2.50001 8.33334 1.77501 9.58334C1.70187 9.71002 1.66336 9.85372 1.66336 10C1.66336 10.1463 1.70187 10.29 1.77501 10.4167C2.30001 11.325 5.10834 15.8333 10.0167 15.8333H10.225C14.8333 15.7167 17.5083 11.6667 18.225 10.4167C18.2981 10.29 18.3367 10.1463 18.3367 10C18.3367 9.85372 18.2981 9.71002 18.225 9.58334ZM10.1833 14.1667C6.59167 14.25 4.25001 11.175 3.51667 10C4.35001 8.65834 6.52501 5.91667 9.85834 5.83334C13.4333 5.74167 15.7833 8.82501 16.525 10C15.6667 11.3417 13.5167 14.0833 10.1833 14.1667Z"
                  fill="white"/>
            <path d="M10 7.08334C9.42315 7.08334 8.85924 7.2544 8.3796 7.57489C7.89995 7.89538 7.52612 8.3509 7.30536 8.88385C7.08461 9.4168 7.02685 10.0032 7.13939 10.569C7.25193 11.1348 7.52971 11.6545 7.93762 12.0624C8.34552 12.4703 8.86522 12.7481 9.431 12.8606C9.99678 12.9732 10.5832 12.9154 11.1162 12.6947C11.6491 12.4739 12.1046 12.1001 12.4251 11.6204C12.7456 11.1408 12.9167 10.5769 12.9167 10C12.9167 9.22646 12.6094 8.4846 12.0624 7.93762C11.5154 7.39063 10.7736 7.08334 10 7.08334ZM10 11.25C9.75279 11.25 9.51111 11.1767 9.30555 11.0393C9.09999 10.902 8.93977 10.7068 8.84516 10.4784C8.75055 10.25 8.7258 9.99862 8.77403 9.75615C8.82226 9.51367 8.94131 9.29094 9.11613 9.11613C9.29094 8.94131 9.51367 8.82226 9.75615 8.77403C9.99862 8.7258 10.25 8.75055 10.4784 8.84516C10.7068 8.93977 10.902 9.09999 11.0393 9.30555C11.1767 9.51111 11.25 9.75278 11.25 10C11.25 10.3315 11.1183 10.6495 10.8839 10.8839C10.6495 11.1183 10.3315 11.25 10 11.25Z"
                  fill="white"/>
        </g>
        <defs>
            <clipPath id="clip0_5661_2350">
                <rect width="20" height="20" fill="white"/>
            </clipPath>
        </defs>

    </g>
    <g id="eyeOutlineOff">
        <g clip-path="url(#clip0_5661_1736)">
            <path d="M4.71 3.29C4.61676 3.19676 4.50607 3.1228 4.38425 3.07234C4.26243 3.02188 4.13186 2.99591 4 2.99591C3.86814 2.99591 3.73757 3.02188 3.61575 3.07234C3.49393 3.1228 3.38324 3.19676 3.29 3.29C3.10169 3.47831 2.99591 3.7337 2.99591 4C2.99591 4.2663 3.10169 4.5217 3.29 4.71L8.92 10.34C8.5638 11.0026 8.43058 11.7624 8.54009 12.5067C8.64959 13.2509 8.99599 13.9401 9.52794 14.4721C10.0599 15.004 10.7491 15.3504 11.4934 15.4599C12.2376 15.5694 12.9974 15.4362 13.66 15.08L19.29 20.71C19.383 20.8037 19.4936 20.8781 19.6154 20.9289C19.7373 20.9797 19.868 21.0058 20 21.0058C20.132 21.0058 20.2627 20.9797 20.3846 20.9289C20.5064 20.8781 20.617 20.8037 20.71 20.71C20.8037 20.617 20.8781 20.5064 20.9289 20.3846C20.9797 20.2627 21.0058 20.132 21.0058 20C21.0058 19.868 20.9797 19.7373 20.9289 19.6154C20.8781 19.4936 20.8037 19.383 20.71 19.29L4.71 3.29ZM12 13.5C11.6022 13.5 11.2206 13.342 10.9393 13.0607C10.658 12.7794 10.5 12.3978 10.5 12V11.93L12.06 13.49L12 13.5Z"
                  fill="white"/>
            <path d="M12.22 17C7.92 17.1 5.1 13.41 4.22 12C4.84647 11.0007 5.59936 10.0865 6.46 9.27999L5 7.87C3.87133 8.93347 2.90441 10.1564 2.13 11.5C2.04223 11.652 1.99603 11.8245 1.99603 12C1.99603 12.1755 2.04223 12.348 2.13 12.5C2.76 13.59 6.13 19 12.02 19H12.27C13.3775 18.9671 14.4708 18.7404 15.5 18.33L13.92 16.75C13.3644 16.8962 12.7942 16.98 12.22 17Z"
                  fill="white"/>
            <path d="M21.87 11.5C21.23 10.39 17.7 4.81999 11.73 4.99999C10.6225 5.03285 9.52924 5.25961 8.5 5.66999L10.08 7.24999C10.6356 7.10382 11.2058 7.01997 11.78 6.99999C16.07 6.88999 18.89 10.59 19.78 12C19.1381 13.0023 18.3682 13.9167 17.49 14.72L19 16.13C20.1428 15.0693 21.1234 13.8462 21.91 12.5C21.9918 12.3445 22.0311 12.1702 22.0241 11.9946C22.0171 11.8191 21.9639 11.6485 21.87 11.5Z"
                  fill="white"/>
        </g>
        <defs>
            <clipPath id="clip0_5661_1736">
                <rect width="20" height="20" fill="white"/>
            </clipPath>
        </defs>

    </g>
    <g id="keyboardArrowLeft">
        <svg width="24" height="24" viewBox="0 0 24 24" fill="none" xmlns="http://www.w3.org/2000/svg">
            <path d="M13.83 19C13.6806 19.0005 13.533 18.9675 13.398 18.9035C13.263 18.8395 13.1441 18.746 13.05 18.63L8.22 12.63C8.07292 12.4511 7.99251 12.2266 7.99251 11.995C7.99251 11.7634 8.07292 11.5389 8.22 11.36L13.22 5.36C13.3897 5.15578 13.6336 5.02736 13.8981 5.00298C14.1625 4.9786 14.4258 5.06026 14.63 5.23C14.8342 5.39974 14.9626 5.64365 14.987 5.90808C15.0114 6.1725 14.9297 6.43578 14.76 6.64L10.29 12L14.61 17.36C14.7323 17.5068 14.81 17.6855 14.8338 17.8751C14.8577 18.0646 14.8268 18.257 14.7447 18.4296C14.6627 18.6021 14.5329 18.7475 14.3708 18.8486C14.2087 18.9497 14.021 19.0022 13.83 19Z" fill="white"/>
        </svg>
    </g>
    <g id="keyboardArrowRight">
        <svg width="24" height="24" viewBox="0 0 24 24" fill="none" xmlns="http://www.w3.org/2000/svg">
            <g clip-path="url(#clip0_5661_1749)">
                <path d="M10 19C9.76635 19.0005 9.53991 18.9191 9.36 18.77C9.25874 18.6861 9.17504 18.583 9.11369 18.4666C9.05233 18.3503 9.01454 18.223 9.00246 18.092C8.99039 17.961 9.00427 17.8289 9.04331 17.7033C9.08236 17.5777 9.1458 17.4611 9.23 17.36L13.71 12L9.39 6.63C9.30693 6.52771 9.2449 6.41002 9.20747 6.28368C9.17004 6.15734 9.15794 6.02485 9.17188 5.89382C9.18582 5.76279 9.22552 5.63581 9.28869 5.52017C9.35187 5.40454 9.43727 5.30252 9.54 5.22C9.64346 5.12897 9.76463 5.0603 9.89589 5.01831C10.0272 4.97632 10.1657 4.96192 10.3028 4.976C10.4399 4.99009 10.5726 5.03236 10.6925 5.10016C10.8125 5.16796 10.9172 5.25983 11 5.37L15.83 11.37C15.9771 11.5489 16.0575 11.7734 16.0575 12.005C16.0575 12.2366 15.9771 12.4611 15.83 12.64L10.83 18.64C10.7297 18.761 10.6022 18.8567 10.458 18.9192C10.3138 18.9818 10.1569 19.0095 10 19Z" fill="white"/>
            </g>
            <defs>
                <clipPath id="clip0_5661_1749">
                    <rect width="24" height="24" fill="white"/>
                </clipPath>
            </defs>
        </svg>

    </g>
    <g id="backArrow">
        <svg width="16" height="16" viewBox="0 0 16 16" fill="none" xmlns="http://www.w3.org/2000/svg">
            <path d="M15 6H3.14L6.77 1.64C6.93974 1.43578 7.0214 1.1725 6.99702 0.908077C6.97264 0.643651 6.84422 0.39974 6.64 0.230001C6.43578 0.0602625 6.1725 -0.0213994 5.90808 0.00298028C5.64365 0.02736 5.39974 0.155784 5.23 0.360001L0.23 6.36C0.196361 6.40772 0.166279 6.45786 0.14 6.51C0.14 6.56 0.14 6.59 0.0700002 6.64C0.0246737 6.75466 0.000941121 6.87671 0 7C0.000941121 7.12329 0.0246737 7.24534 0.0700002 7.36C0.0700002 7.41 0.0699999 7.44 0.14 7.49C0.166279 7.54214 0.196361 7.59228 0.23 7.64L5.23 13.64C5.32402 13.7529 5.44176 13.8437 5.57485 13.9059C5.70793 13.9681 5.85309 14.0002 6 14C6.23365 14.0005 6.46009 13.9191 6.64 13.77C6.74126 13.6861 6.82496 13.583 6.88631 13.4666C6.94766 13.3503 6.98546 13.2229 6.99754 13.092C7.00961 12.961 6.99573 12.8289 6.95669 12.7033C6.91764 12.5777 6.8542 12.4611 6.77 12.36L3.14 8H15C15.2652 8 15.5196 7.89464 15.7071 7.70711C15.8946 7.51957 16 7.26522 16 7C16 6.73478 15.8946 6.48043 15.7071 6.29289C15.5196 6.10536 15.2652 6 15 6Z" fill="white"/>
        </svg>
    </g>
    <g id="arrowUp">
        <svg width="8" height="4" viewBox="0 0 8 4" fill="none" xmlns="http://www.w3.org/2000/svg">
            <path d="M7.77072 3.25718C7.77095 3.374 7.73026 3.48722 7.65572 3.57718C7.61375 3.62781 7.5622 3.66966 7.50402 3.70033C7.44585 3.73101 7.3822 3.74991 7.31671 3.75594C7.25122 3.76198 7.18518 3.75504 7.12238 3.73552C7.05958 3.716 7.00125 3.68428 6.95072 3.64218L4.27072 1.40218L1.58572 3.56218C1.53458 3.60371 1.47573 3.63473 1.41256 3.65344C1.34939 3.67216 1.28315 3.6782 1.21763 3.67123C1.15212 3.66426 1.08863 3.64442 1.03081 3.61283C0.972989 3.58124 0.921984 3.53854 0.880722 3.48718C0.835204 3.43544 0.80087 3.37486 0.779876 3.30923C0.758881 3.2436 0.751679 3.17434 0.758722 3.10579C0.765764 3.03724 0.786899 2.97089 0.8208 2.9109C0.854701 2.85091 0.900636 2.79857 0.955722 2.75718L3.95572 0.342177C4.04519 0.268636 4.15741 0.228433 4.27322 0.228433C4.38903 0.228433 4.50126 0.268636 4.59072 0.342177L7.59072 2.84218C7.65123 2.89234 7.69906 2.95605 7.73034 3.02816C7.76161 3.10026 7.77545 3.17872 7.77072 3.25718Z" fill="white"/>
        </svg>
    </g>
    <g id="arrowDown">
        <svg width="8" height="4" viewBox="0 0 15 8" fill="none" xmlns="http://www.w3.org/2000/svg">
            <path d="M0.514143 1.45842C0.513686 1.22477 0.595061 0.998336 0.744143 0.818424C0.828092 0.717166 0.931193 0.633464 1.04754 0.572112C1.16389 0.51076 1.29119 0.472964 1.42217 0.460888C1.55315 0.448812 1.68522 0.462694 1.81082 0.501739C1.93643 0.540783 2.05309 0.604222 2.15414 0.688424L7.51414 5.16842L12.8841 0.848425C12.9864 0.765359 13.1041 0.703328 13.2305 0.665896C13.3568 0.628464 13.4893 0.61637 13.6203 0.63031C13.7514 0.644249 13.8783 0.683946 13.994 0.747119C14.1096 0.810293 14.2116 0.895698 14.2941 0.998425C14.3852 1.10189 14.4538 1.22306 14.4958 1.35432C14.5378 1.48558 14.5522 1.62411 14.5381 1.7612C14.5241 1.89829 14.4818 2.03099 14.414 2.15098C14.3462 2.27096 14.2543 2.37563 14.1441 2.45843L8.14414 7.28842C7.96521 7.43551 7.74077 7.51591 7.50914 7.51591C7.27752 7.51591 7.05308 7.43551 6.87414 7.28842L0.874144 2.28842C0.753126 2.18811 0.657462 2.06067 0.594913 1.91646C0.532365 1.77225 0.504692 1.61533 0.514143 1.45842Z" fill="white"/>
        </svg>
    </g>
    <g id="emptyStar">
        <svg width="24" height="24" viewBox="0 0 24 24" fill="none" xmlns="http://www.w3.org/2000/svg">
            <path d="M17.56 21C17.4001 21.0006 17.2423 20.9629 17.1 20.89L12 18.22L6.9 20.89C6.73439 20.9771 6.54768 21.016 6.36108 21.0022C6.17448 20.9884 5.99548 20.9226 5.84443 20.8122C5.69338 20.7018 5.57634 20.5512 5.50661 20.3776C5.43689 20.2039 5.41727 20.0142 5.45 19.83L6.45 14.2L2.33 10.2C2.20146 10.0717 2.11027 9.91087 2.06623 9.73469C2.02218 9.55852 2.02694 9.37367 2.08 9.2C2.13796 9.02227 2.24458 8.86435 2.38775 8.74416C2.53092 8.62396 2.70492 8.5463 2.89 8.52L8.59 7.69L11.1 2.56C11.1819 2.39093 11.3097 2.24834 11.4689 2.14857C11.6281 2.0488 11.8121 1.99589 12 1.99589C12.1879 1.99589 12.3719 2.0488 12.5311 2.14857C12.6903 2.24834 12.8181 2.39093 12.9 2.56L15.44 7.68L21.14 8.51C21.3251 8.5363 21.4991 8.61396 21.6423 8.73416C21.7854 8.85435 21.892 9.01227 21.95 9.19C22.0031 9.36367 22.0078 9.54852 21.9638 9.72469C21.9197 9.90087 21.8285 10.0617 21.7 10.19L17.58 14.19L18.58 19.82C18.6157 20.0075 18.597 20.2013 18.5261 20.3784C18.4552 20.5556 18.3351 20.7089 18.18 20.82C17.9989 20.9469 17.7809 21.0102 17.56 21ZM12 16.1C12.1603 16.096 12.3189 16.1339 12.46 16.21L16.23 18.21L15.51 14C15.4821 13.8392 15.4939 13.6741 15.5444 13.519C15.595 13.3638 15.6827 13.2234 15.8 13.11L18.8 10.18L14.6 9.56C14.446 9.52899 14.3014 9.46213 14.1781 9.36483C14.0547 9.26754 13.956 9.14255 13.89 9L12 5.25L10.11 9C10.0376 9.1437 9.93169 9.26783 9.80112 9.36184C9.67055 9.45585 9.51923 9.51696 9.36 9.54L5.16 10.16L8.16 13.09C8.27728 13.2034 8.36502 13.3438 8.41556 13.499C8.46611 13.6541 8.47793 13.8192 8.45 13.98L7.73 18.14L11.5 16.14C11.6597 16.0806 11.8328 16.0668 12 16.1Z" fill="#e5ac39"/>
        </svg>
    </g>
    <g id="fillStar">
        <svg width="24" height="24" viewBox="0 0 24 24" fill="none" xmlns="http://www.w3.org/2000/svg">
            <g clip-path="url(#clip0_5928_5119)">
                <path d="M17.56 21C17.4001 21.0006 17.2423 20.9629 17.1 20.89L12 18.22L6.9 20.89C6.73439 20.9771 6.54768 21.016 6.36108 21.0022C6.17448 20.9884 5.99548 20.9226 5.84443 20.8122C5.69338 20.7018 5.57634 20.5512 5.50661 20.3776C5.43689 20.2039 5.41727 20.0142 5.45 19.83L6.45 14.2L2.33 10.2C2.20146 10.0717 2.11027 9.91087 2.06623 9.73469C2.02218 9.55852 2.02694 9.37367 2.08 9.2C2.13796 9.02227 2.24458 8.86435 2.38775 8.74416C2.53092 8.62396 2.70492 8.5463 2.89 8.52L8.59 7.69L11.1 2.56C11.1819 2.39093 11.3097 2.24834 11.4689 2.14857C11.6281 2.0488 11.8121 1.99589 12 1.99589C12.1879 1.99589 12.3719 2.0488 12.5311 2.14857C12.6903 2.24834 12.8181 2.39093 12.9 2.56L15.44 7.68L21.14 8.51C21.3251 8.5363 21.4991 8.61396 21.6423 8.73416C21.7854 8.85435 21.892 9.01227 21.95 9.19C22.0031 9.36367 22.0078 9.54852 21.9638 9.72469C21.9197 9.90087 21.8285 10.0617 21.7 10.19L17.58 14.19L18.58 19.82C18.6157 20.0075 18.597 20.2013 18.5261 20.3784C18.4552 20.5556 18.3351 20.7089 18.18 20.82C17.9989 20.9469 17.7809 21.0102 17.56 21Z" fill="#e5ac39"/>
            </g>
            <defs>
                <clipPath id="clip0_5928_5119">
                    <rect width="24" height="24" fill="#e5ac39"/>
                </clipPath>
            </defs>
        </svg>

    </g>

    <g id="close">
        <svg xmlns="http://www.w3.org/2000/svg" width="24px" height="23px" viewBox="0 0 24 24" fill="none">
            <path fill-rule="evenodd" clip-rule="evenodd" d="M5.29289 5.29289C5.68342 4.90237 6.31658 4.90237 6.70711 5.29289L12 10.5858L17.2929 5.29289C17.6834 4.90237 18.3166 4.90237 18.7071 5.29289C19.0976 5.68342 19.0976 6.31658 18.7071 6.70711L13.4142 12L18.7071 17.2929C19.0976 17.6834 19.0976 18.3166 18.7071 18.7071C18.3166 19.0976 17.6834 19.0976 17.2929 18.7071L12 13.4142L6.70711 18.7071C6.31658 19.0976 5.68342 19.0976 5.29289 18.7071C4.90237 18.3166 4.90237 17.6834 5.29289 17.2929L10.5858 12L5.29289 6.70711C4.90237 6.31658 4.90237 5.68342 5.29289 5.29289Z" fill="currentColor"/>
        </svg>
    </g>
    <g id="search">
        <svg xmlns="http://www.w3.org/2000/svg" width="16" height="16" fill="currentColor" class="bi bi-search" viewBox="0 0 16 16">
            <path d="M11.742 10.344a6.5 6.5 0 1 0-1.397 1.398h-.001c.03.04.062.078.098.115l3.85 3.85a1 1 0 0 0 1.415-1.414l-3.85-3.85a1.007 1.007 0 0 0-.115-.1zM12 6.5a5.5 5.5 0 1 1-11 0 5.5 5.5 0 0 1 11 0z"/>
        </svg>
    </g>
</svg>